<svg width="460" height="480" viewBox="0 0 460 480" xmlns="http://www.w3.org/2000/svg">
  <g fill="#fff" stroke="none" stroke-width="0">
    <path d="M 42 10 L 98 10 A 32 32 0 0 1 130 42 L 130 438 A 32 32 0 0 1 98 470 L 42 470 A 32 32 0 0 1 10 438 L 10 42 A 32 32 0 0 1 42 10 Z" />
    <path d="M 362 10 L 418 10 A 32 32 0 0 1 450 42 L 450 438 A 32 32 0 0 1 418 470 L 362 470 A 32 32 0 0 1 330 438 L 330 42 A 32 32 0 0 1 362 10 Z" />
    <path d="M 200 70 L 260 70 L 260 70 L 260 110 A 30 30 0 0 1 230 140 L 232 140 A 30 30 0 0 1 200 110 L 200 70 L 200 70 Z" />
    <path d="M 112 10 L 168 10 A 32 32 0 0 1 200 42 L 200 90 L 200 90 L 112 90 A 32 32 0 0 1 80 58 L 80 42 A 32 32 0 0 1 112 10 Z" />
    <path d="M 292 10 L 348 10 A 32 32 0 0 1 380 42 L 380 58 A 32 32 0 0 1 348 90 L 260 90 L 260 90 L 260 42 A 32 32 0 0 1 292 10 Z" />
    <path d="M 0 0 C 0 -23.872 -5.76 -32 -32 -32 H 0 Z" transform="translate(200, 122)" />
    <path d="M 0 0 C 0 -23.872 5.76 -32 32 -32 H 0 Z" transform="translate(260, 122)" />
    <path d="M 0 0 C 0 23.872 5.76 32 32 32 H 0 Z" transform="translate(200, 38)" />
    <path d="M 0 0 C 0 23.872 -5.76 32 -32 32 H 0 Z" transform="translate(260, 38)" />
  </g>
</svg>